<?xml version="1.0" encoding="utf-8"?>
<!-- Generator: Adobe Illustrator 18.0.0, SVG Export Plug-In . SVG Version: 6.00 Build 0)  -->
<!DOCTYPE svg PUBLIC "-//W3C//DTD SVG 1.1//EN" "http://www.w3.org/Graphics/SVG/1.1/DTD/svg11.dtd">
<svg version="1.1" id="Layer_1" xmlns="http://www.w3.org/2000/svg" xmlns:xlink="http://www.w3.org/1999/xlink" x="0px" y="0px"
	 viewBox="0 0 285.3 216.5" style="enable-background:new 0 0 285.3 216.5;" xml:space="preserve">
<style type="text/css">
	.st0{fill:#57068C;}
	.st1{fill:#FFF32A;}
	.st2{opacity:0.8;}
	.st3{opacity:0.54;}
	.st4{opacity:0.7;}
	.st5{fill:#231F20;}
</style>
<g>
	<circle class="st1" cx="108.2" cy="108.2" r="108.2"/>
	<g>
		<path d="M1.3,121l5.8-4.6c1.4,1.8,2.7,3.1,4.1,3.9c1.4,0.8,2.8,1.3,4.2,1.3c1.6,0,2.8-0.4,3.7-1.1c0.9-0.7,1.4-1.7,1.4-2.9
			c0-1.8-1.9-3.4-5.7-4.8c-0.4-0.2-0.7-0.3-0.9-0.4c-4.5-1.7-7.6-3.4-9.1-5c-1.5-1.6-2.3-3.7-2.3-6.2c0-3.1,1.2-5.7,3.5-7.6
			c2.3-2,5.3-3,9-3c2.5,0,4.7,0.5,6.7,1.4c2,0.9,3.8,2.3,5.5,4.2l-5.4,4.7c-1.2-1.2-2.3-2.2-3.5-2.8c-1.2-0.6-2.3-0.9-3.6-0.9
			c-1.4,0-2.6,0.3-3.4,1c-0.8,0.6-1.2,1.5-1.2,2.6c0,1.4,1.9,2.7,5.7,4.2c1,0.4,1.8,0.7,2.4,0.9c3.9,1.5,6.5,3.1,7.9,4.7
			c1.4,1.7,2.1,3.9,2.1,6.6c0,3.4-1.2,6.1-3.5,8.1c-2.3,2-5.4,3.1-9.2,3.1c-3,0-5.6-0.6-7.9-1.8C5.3,125.4,3.2,123.5,1.3,121z"/>
		<path d="M56.2,123.3c-2.2,1.8-4.2,3-5.9,3.8c-1.7,0.7-3.5,1.1-5.4,1.1c-3.4,0-5.9-1-7.6-2.9c-1.7-1.9-2.5-4.9-2.5-8.8V91.3h8.6
			v23.5c0,2.3,0.3,4,1,5c0.6,1,1.7,1.5,3.2,1.5c1.2,0,2.5-0.3,3.8-1c1.3-0.7,2.7-1.7,4.2-3.1v-26H64v36.3h-7.9V123.3z"/>
		<path d="M72.5,127.6V91.3h7.9v4.3c2.3-1.8,4.2-3.1,5.9-3.9c1.7-0.8,3.5-1.1,5.3-1.1c3.4,0,5.9,1,7.6,3c1.7,2,2.6,4.9,2.6,8.8v25.2
			h-8.6V104c0-2.3-0.3-4-0.9-5c-0.6-1-1.7-1.5-3.2-1.5c-1.3,0-2.6,0.3-3.9,1c-1.3,0.7-2.7,1.7-4.2,3v26H72.5z"/>
		<path d="M132.4,123.7c-1.3,1.6-2.7,2.7-4.3,3.4c-1.6,0.7-3.4,1.1-5.5,1.1c-4.2,0-7.6-1.7-10.2-5.2c-2.6-3.5-4-8-4-13.6
			c0-5.6,1.3-10.1,3.9-13.6c2.6-3.5,5.9-5.2,10-5.2c1.8,0,3.4,0.3,4.8,1c1.4,0.7,2.7,1.7,4,3.2V82.6h8.4v36.5c0,0.9,0,2,0.1,3.4
			s0.2,3.1,0.3,5h-6.6L132.4,123.7z M131.1,117.9v-17.2c-1.2-1.1-2.3-1.9-3.3-2.3c-1-0.5-2-0.7-3.1-0.7c-2.4,0-4.3,1-5.6,3.1
			c-1.4,2.1-2,5-2,8.7c0,3.7,0.7,6.6,2,8.6c1.4,2,3.2,3,5.7,3c1.1,0,2.2-0.2,3.1-0.7C128.9,119.9,130,119.1,131.1,117.9z"/>
		<path d="M168.6,127.6l-0.7-3.2c-1.6,1.2-3.4,2.1-5.2,2.7c-1.8,0.6-3.7,0.9-5.6,0.9c-3,0-5.4-0.9-7.1-2.6c-1.7-1.7-2.6-4.1-2.6-7.1
			c0-4,1.7-7.1,5-9.4c3.3-2.3,8.5-3.9,15.6-4.7v-2.8c0-1.3-0.4-2.4-1.3-3.1c-0.9-0.7-2.2-1.1-3.8-1.1c-1.6,0-3.1,0.3-4.5,1
			c-1.3,0.7-2.5,1.7-3.5,3.1l-5.8-3.7c1.5-2.3,3.4-4.1,5.7-5.3c2.3-1.2,5-1.8,8.1-1.8c4.2,0,7.5,0.9,9.8,2.8
			c2.3,1.9,3.5,4.5,3.5,7.9v21.3c0,0.6,0,1.2,0.1,2c0.1,0.8,0.2,1.8,0.4,2.9H168.6z M167.6,109.9c-4.1,0.6-7.1,1.5-9,2.7
			c-1.9,1.2-2.8,2.9-2.8,5c0,1.2,0.3,2.2,1,2.9c0.7,0.7,1.6,1,2.9,1c1.4,0,2.7-0.3,4-0.9c1.3-0.6,2.6-1.6,4-2.9V109.9z"/>
		<path d="M185.1,127.6V91.3h7.9v4.3c2.3-1.8,4.2-3.1,5.9-3.9c1.7-0.8,3.5-1.1,5.3-1.1c3.4,0,5.9,1,7.6,3c1.7,2,2.6,4.9,2.6,8.8
			v25.2h-8.6V104c0-2.3-0.3-4-0.9-5c-0.6-1-1.7-1.5-3.2-1.5c-1.3,0-2.6,0.3-3.9,1c-1.3,0.7-2.7,1.7-4.2,3v26H185.1z"/>
		<path d="M243.9,115.5l6.7,3.5c-1.2,3-3.1,5.3-5.5,6.9c-2.4,1.6-5.3,2.3-8.8,2.3c-5.1,0-9-1.6-11.7-4.8c-2.7-3.2-4-7.9-4-14.1
			c0-5.8,1.4-10.4,4.2-13.7c2.8-3.3,6.6-5,11.5-5c3.4,0,6.3,0.8,8.7,2.4c2.4,1.6,4.1,4,5.2,7l-7.2,3.1c-0.7-1.9-1.5-3.3-2.5-4.2
			c-1-0.9-2.2-1.3-3.7-1.3c-2.6,0-4.5,1-5.8,3c-1.2,2-1.9,5.1-1.9,9.2c0,3.7,0.6,6.5,1.7,8.3c1.2,1.8,2.9,2.7,5.3,2.7
			c1.7,0,3.2-0.4,4.4-1.3C242,118.8,243,117.4,243.9,115.5z"/>
		<path d="M284.9,120.4c-1.4,2.6-3.3,4.5-5.7,5.8c-2.5,1.3-5.4,2-8.7,2c-4.8,0-8.6-1.6-11.3-4.9c-2.7-3.3-4.1-7.9-4.1-13.8
			c0-5.9,1.3-10.6,4-13.9c2.7-3.3,6.4-5,11.2-5c4.8,0,8.4,1.6,11.1,4.8c2.6,3.2,3.9,7.8,3.9,13.6c0,0.2,0,0.5,0,0.9
			c0,0.4,0,0.7,0,0.9l-21.7,0c0,3.4,0.7,6,2,7.7c1.3,1.7,3.2,2.6,5.7,2.6c1.6,0,2.9-0.4,4.1-1.1c1.2-0.7,2.3-1.9,3.3-3.6
			L284.9,120.4z M263.6,104.7h13.2c0-2.4-0.6-4.3-1.8-5.6c-1.2-1.4-2.8-2-4.8-2c-1.9,0-3.5,0.7-4.6,2
			C264.5,100.4,263.8,102.3,263.6,104.7z"/>
	</g>
	<g>
		<path d="M12.2,136.2v-2.6h2.7v2.6H12.2z M12.2,149.6v-11.5h2.7v11.5H12.2z"/>
		<path d="M17.2,149.6v-11.5h2.5v1.4c0.7-0.6,1.3-1,1.9-1.2c0.5-0.2,1.1-0.4,1.7-0.4c1.1,0,1.9,0.3,2.4,0.9c0.5,0.6,0.8,1.6,0.8,2.8
			v8h-2.7v-7.5c0-0.7-0.1-1.3-0.3-1.6c-0.2-0.3-0.5-0.5-1-0.5c-0.4,0-0.8,0.1-1.2,0.3c-0.4,0.2-0.9,0.5-1.3,1v8.2H17.2z"/>
		<path d="M27.4,147.5l1.8-1.4c0.4,0.6,0.9,1,1.3,1.2c0.4,0.3,0.9,0.4,1.3,0.4c0.5,0,0.9-0.1,1.2-0.3c0.3-0.2,0.4-0.5,0.4-0.9
			c0-0.6-0.6-1.1-1.8-1.5c-0.1,0-0.2-0.1-0.3-0.1c-1.4-0.5-2.4-1.1-2.9-1.6c-0.5-0.5-0.7-1.2-0.7-2c0-1,0.4-1.8,1.1-2.4
			c0.7-0.6,1.7-0.9,2.9-0.9c0.8,0,1.5,0.1,2.1,0.4c0.6,0.3,1.2,0.7,1.8,1.3l-1.7,1.5c-0.4-0.4-0.7-0.7-1.1-0.9
			c-0.4-0.2-0.7-0.3-1.1-0.3c-0.5,0-0.8,0.1-1.1,0.3c-0.3,0.2-0.4,0.5-0.4,0.8c0,0.4,0.6,0.9,1.8,1.3c0.3,0.1,0.6,0.2,0.8,0.3
			c1.2,0.5,2.1,1,2.5,1.5c0.4,0.5,0.7,1.2,0.7,2.1c0,1.1-0.4,1.9-1.1,2.6c-0.7,0.6-1.7,1-2.9,1c-0.9,0-1.8-0.2-2.5-0.6
			C28.7,148.9,28,148.3,27.4,147.5z"/>
		<path d="M40.6,146.1c0,0.6,0.1,0.9,0.2,1.1c0.2,0.2,0.4,0.3,0.9,0.3c0.2,0,0.4,0,0.5,0c0.2,0,0.4,0,0.6-0.1v2.2
			c-0.3,0.1-0.6,0.1-1,0.1c-0.4,0-0.8,0.1-1.2,0.1c-0.9,0-1.6-0.2-2.1-0.6c-0.4-0.4-0.6-1.1-0.6-2.1v-6.8h-1.5v-2.2h1.5v-3.7h2.7
			v3.7h2.2v2.2h-2.2V146.1z"/>
		<path d="M44.4,136.2v-2.6h2.7v2.6H44.4z M44.4,149.6v-11.5h2.7v11.5H44.4z"/>
		<path d="M52.7,146.1c0,0.6,0.1,0.9,0.2,1.1c0.2,0.2,0.4,0.3,0.9,0.3c0.2,0,0.4,0,0.5,0c0.2,0,0.4,0,0.6-0.1v2.2
			c-0.3,0.1-0.6,0.1-1,0.1c-0.4,0-0.8,0.1-1.2,0.1c-0.9,0-1.6-0.2-2.1-0.6c-0.4-0.4-0.6-1.1-0.6-2.1v-6.8h-1.5v-2.2h1.5v-3.7h2.7
			v3.7h2.2v2.2h-2.2V146.1z"/>
		<path d="M63,148.2c-0.7,0.6-1.3,1-1.9,1.2c-0.6,0.2-1.1,0.4-1.7,0.4c-1.1,0-1.9-0.3-2.4-0.9s-0.8-1.5-0.8-2.8v-8H59v7.5
			c0,0.7,0.1,1.3,0.3,1.6c0.2,0.3,0.5,0.5,1,0.5c0.4,0,0.8-0.1,1.2-0.3c0.4-0.2,0.9-0.5,1.3-1v-8.2h2.7v11.5H63V148.2z"/>
		<path d="M70.8,146.1c0,0.6,0.1,0.9,0.2,1.1c0.2,0.2,0.4,0.3,0.9,0.3c0.2,0,0.4,0,0.5,0c0.2,0,0.4,0,0.6-0.1v2.2
			c-0.3,0.1-0.6,0.1-1,0.1c-0.4,0-0.8,0.1-1.2,0.1c-0.9,0-1.6-0.2-2.1-0.6c-0.4-0.4-0.6-1.1-0.6-2.1v-6.8h-1.5v-2.2h1.5v-3.7h2.7
			v3.7H73v2.2h-2.2V146.1z"/>
		<path d="M82.9,147.3c-0.4,0.8-1,1.4-1.8,1.8c-0.8,0.4-1.7,0.6-2.8,0.6c-1.5,0-2.7-0.5-3.6-1.6c-0.9-1-1.3-2.5-1.3-4.4
			c0-1.9,0.4-3.3,1.3-4.4s2-1.6,3.5-1.6c1.5,0,2.7,0.5,3.5,1.5c0.8,1,1.2,2.5,1.2,4.3c0,0.1,0,0.2,0,0.3c0,0.1,0,0.2,0,0.3l-6.9,0
			c0,1.1,0.2,1.9,0.6,2.4c0.4,0.5,1,0.8,1.8,0.8c0.5,0,0.9-0.1,1.3-0.3c0.4-0.2,0.7-0.6,1-1.1L82.9,147.3z M76.2,142.3h4.2
			c0-0.8-0.2-1.4-0.6-1.8c-0.4-0.4-0.9-0.6-1.5-0.6c-0.6,0-1.1,0.2-1.5,0.6C76.4,140.9,76.2,141.5,76.2,142.3z"/>
	</g>
</g>
</svg>
